<?xml version="1.0" encoding="UTF-8" standalone="no"?>
<!DOCTYPE svg PUBLIC "-//W3C//DTD SVG 1.1//EN" "http://www.w3.org/Graphics/SVG/1.1/DTD/svg11.dtd">
<svg width="100%" height="100%" viewBox="0 0 580 167" version="1.1" xmlns="http://www.w3.org/2000/svg" xmlns:xlink="http://www.w3.org/1999/xlink" xml:space="preserve" xmlns:serif="http://www.serif.com/" style="fill-rule:evenodd;clip-rule:evenodd;stroke-linejoin:round;stroke-miterlimit:2;">
    <g id="SvgjsG1637" transform="matrix(2.33442,0,0,2.33442,79.1557,119.94)">
        <path d="M7.7,16.42C7.74,17.1 7.56,17.86 7.18,18.42C7,18.68 6.8,18.94 6.54,19.16C6.38,19.28 6.22,19.42 6.04,19.52C5.86,19.62 5.66,19.7 5.48,19.78C4.88,20.04 4.16,20.06 3.54,19.9C3.22,19.82 2.92,19.7 2.64,19.52C2.38,19.36 2.1,19.16 1.9,18.92C1.68,18.68 1.48,18.42 1.34,18.12C1.26,17.94 1.16,17.74 1.1,17.54C1.06,17.34 1,16.82 1,16.62C1,16.02 3.24,16.02 3.24,16.62C3.24,17.12 4.02,18.46 5.22,17.26C5.72,16.54 5.26,15.72 4.82,15.12C4.14,14.28 3.26,13.64 2.54,12.84C2.12,12.38 1.7,11.86 1.44,11.28C1.3,10.96 1.18,10.64 1.1,10.28C0.8,8.62 1.32,5.66 4.94,6C6.76,6.18 7.56,7.74 7.56,8.8C7.56,9.4 5.28,9.4 5.28,8.8C5.28,8 3.02,7.9 3.3,9.66C3.34,9.84 3.38,10.02 3.46,10.2C3.58,10.46 3.72,10.68 3.88,10.9C4.08,11.16 4.28,11.38 4.52,11.6C5.4,12.46 6.4,13.24 7.04,14.34C7.42,14.98 7.64,15.68 7.7,16.42ZM16.56,17.46C16.2,19 15.12,20 13.42,20L12.9,20C11.22,20 10.14,19 9.76,17.46C9.74,17.34 9.68,8.9 9.7,8.82C9.98,7.14 11.02,6.04 12.9,6L13.42,6C15.32,6.04 16.34,7.14 16.62,8.82C16.64,8.9 16.6,17.32 16.56,17.46ZM14.42,16.14L14.42,9.88C14.42,9.4 14.3,8.7 13.72,8.42C13.38,8.24 12.94,8.24 12.6,8.42C12.02,8.7 11.9,9.4 11.9,9.88L11.9,16.14C11.92,16.62 12.02,17.32 12.6,17.6C12.94,17.78 13.38,17.78 13.72,17.6C14.3,17.32 14.4,16.62 14.42,16.14ZM26.82,6.44L26.82,15.04C26.82,21.64 19.02,21.68 19.02,15.02L19.02,6.42C19.02,5.86 21.3,5.86 21.3,6.42L21.3,15.02C21.3,18.68 24.54,18.7 24.54,15.04L24.54,6.44C24.54,5.84 26.82,5.84 26.82,6.44ZM36.96,6.42L36.96,19.16C36.96,20.16 35.04,20.18 34.84,19.68L31.84,12.32L31.84,19.56C31.84,20.16 29.62,20.16 29.62,19.56L29.62,7.06C29.62,5.5 31.56,5.96 31.82,6.52L34.76,13.6L34.76,6.42C34.76,5.82 36.96,5.82 36.96,6.42ZM40.96,6L43.66,6C47,6 47.1,20 43.86,20L41.02,20C39.76,20 39.76,20 39.76,18.9L39.76,7.1C39.76,6.02 39.76,6.02 40.96,6ZM42.84,8.26L42.82,8.26C42.02,8.26 42.02,8.26 42.02,9.02L42.02,16.98C42.02,17.72 42.02,17.72 42.86,17.72L42.98,17.72C44.28,17.72 44.22,8.26 42.84,8.26ZM48.66,6L56.62,6C57.22,6 57.22,8.24 56.62,8.24L53.78,8.28L53.78,19.56C53.78,20.16 51.5,20.16 51.5,19.56L51.5,8.28L48.66,8.24C48.06,8.24 48.06,6 48.66,6ZM66.58,18.86C67,19.86 64.76,20.34 64.5,19.74L64.38,19.46C63.72,17.88 63,16.08 62.34,14.48L61.36,14.48L61.36,19.56C61.36,20.16 59.08,20.16 59.08,19.56L59.08,7.26C59.08,6.32 59.1,6.02 60.5,6L62.56,6C63.28,6 64.08,6.02 64.7,6.42C66.06,7.28 66.48,8.8 66.46,10.34C66.44,11.62 66.26,12.9 65,13.84C64.86,13.92 64.74,14 64.62,14.08C65.26,15.6 65.96,17.34 66.58,18.86ZM64.18,10.76C64.2,10.54 64.2,9.74 64.16,9.36C64.08,8.62 63.8,8.24 62.88,8.24L61.36,8.24L61.36,12.2L63.08,12.2C64,12.2 64.14,11.08 64.18,10.76ZM74.54,6.42L76.62,19.12C76.78,20.12 74.52,20.22 74.4,19.5L74,17.1L71.66,17.1L71.26,19.5C71.16,20.1 68.88,20.12 69.04,19.12L71.14,6.42C71.24,5.82 74.46,5.88 74.54,6.42ZM73.62,14.84L72.84,10.06L72.04,14.84L73.62,14.84ZM83.88,16.2C83.88,15.6 86.1,15.6 86.1,16.2C86.1,18.44 84.94,20 82.82,20C80.6,20 79.08,18.62 79.02,16.5L79.02,9.52C79.08,7.38 80.68,5.96 82.82,6C85.06,6.04 86.1,7.6 86.1,9.82C86.1,10.42 83.88,10.42 83.88,9.82C83.88,9.6 83.88,9.42 83.84,9.22C83.72,8.04 82.3,8.26 82,8.42C81.42,8.7 81.3,9.4 81.3,9.88L81.3,16.14C81.32,16.62 81.42,17.32 82,17.6C82.3,17.76 83.72,17.98 83.84,16.82C83.88,16.62 83.88,16.42 83.88,16.2ZM92.24,13.02L95.38,18.8C95.82,19.6 93.6,20.34 93.34,19.84L90.78,15.18L90.78,19.56C90.78,20.16 88.5,20.16 88.5,19.56L88.5,6.46C88.5,5.86 90.78,5.86 90.78,6.46L90.78,10.84L93.34,6.16C93.6,5.7 95.82,6.38 95.38,7.2L92.24,13.02ZM108.7,6.36C108.92,5.76 111.22,5.94 110.8,6.94C109.88,9.14 108.24,13.16 108.3,13.06L108.3,19.56C108.3,20.16 106.02,20.16 106.02,19.56L106.02,13.06L103.5,7.02C103.04,5.92 105.32,5.7 105.62,6.44L107.16,10.38C107.58,9.26 108.26,7.56 108.7,6.36ZM119.72,17.46C119.36,19 118.28,20 116.58,20L116.06,20C114.38,20 113.3,19 112.92,17.46C112.9,17.34 112.84,8.9 112.86,8.82C113.14,7.14 114.18,6.04 116.06,6L116.58,6C118.48,6.04 119.5,7.14 119.78,8.82C119.8,8.9 119.76,17.32 119.72,17.46ZM117.58,16.14L117.58,9.88C117.58,9.4 117.46,8.7 116.88,8.42C116.54,8.24 116.1,8.24 115.76,8.42C115.18,8.7 115.06,9.4 115.06,9.88L115.06,16.14C115.08,16.62 115.18,17.32 115.76,17.6C116.1,17.78 116.54,17.78 116.88,17.6C117.46,17.32 117.56,16.62 117.58,16.14ZM129.98,6.44L129.98,15.04C129.98,21.64 122.18,21.68 122.18,15.02L122.18,6.42C122.18,5.86 124.46,5.86 124.46,6.42L124.46,15.02C124.46,18.68 127.7,18.7 127.7,15.04L127.7,6.44C127.7,5.84 129.98,5.84 129.98,6.44ZM140.28,18.86C140.7,19.86 138.46,20.34 138.2,19.74L138.08,19.46C137.42,17.88 136.7,16.08 136.04,14.48L135.06,14.48L135.06,19.56C135.06,20.16 132.78,20.16 132.78,19.56L132.78,7.26C132.78,6.32 132.8,6.02 134.2,6L136.26,6C136.98,6 137.78,6.02 138.4,6.42C139.76,7.28 140.18,8.8 140.16,10.34C140.14,11.62 139.96,12.9 138.7,13.84C138.56,13.92 138.44,14 138.32,14.08C138.96,15.6 139.66,17.34 140.28,18.86ZM137.88,10.76C137.9,10.54 137.9,9.74 137.86,9.36C137.78,8.62 137.5,8.24 136.58,8.24L135.06,8.24L135.06,12.2L136.78,12.2C137.7,12.2 137.84,11.08 137.88,10.76ZM151.42,17.74L154.3,17.74C154.7,17.74 154.7,20 154.3,20L150.28,20C149.14,20 149.14,20 149.14,18.9L149.14,6.46C149.14,6.06 151.42,6.06 151.42,6.46L151.42,17.74ZM159.28,6.42L159.28,19.56C159.28,20.16 157,20.16 157,19.56L157,6.42C157,5.82 159.28,5.82 159.28,6.42ZM163.22,6L167.22,6C167.82,6 167.82,8.28 167.22,8.28L164.36,8.28L164.36,11.92L166.36,11.92C166.96,11.92 166.96,14.22 166.36,14.22L164.36,14.22L164.36,19.56C164.36,20.16 162.08,20.16 162.08,19.56L162.08,7.1C162.08,6 162.08,6 163.22,6ZM172.36,17.72L175.22,17.72C175.82,17.72 175.82,20 175.22,20L171.36,20C170.08,20 170.08,20 170.08,18.92L170.08,7.08C170.08,6 170.08,6 171.3,5.98L175.2,6C175.8,6 175.8,8.28 175.2,8.28L172.36,8.28L172.36,11.92L174.36,11.92C174.96,11.92 174.96,14.22 174.36,14.22L172.36,14.22L172.36,17.72ZM178.68,18.18C178.96,17.88 180.02,17.88 180.3,18.16C180.62,18.42 180.58,19.5 180.32,19.78C180.06,20.06 179,20.06 178.7,19.8C178.42,19.52 178.4,18.46 178.68,18.18Z" style="fill:rgb(31,31,31);fill-rule:nonzero;"/>
    </g>
    <g id="SvgjsG1638" transform="matrix(7.46409,0,0,7.46409,-7.46409,-44.5835)">
        <path d="M7.7,16.42C7.74,17.1 7.56,17.86 7.18,18.42C7,18.68 6.8,18.94 6.54,19.16C6.38,19.28 6.22,19.42 6.04,19.52C5.86,19.62 5.66,19.7 5.48,19.78C4.88,20.04 4.16,20.06 3.54,19.9C3.22,19.82 2.92,19.7 2.64,19.52C2.38,19.36 2.1,19.16 1.9,18.92C1.68,18.68 1.48,18.42 1.34,18.12C1.26,17.94 1.16,17.74 1.1,17.54C1.06,17.34 1,16.82 1,16.62C1,16.02 3.24,16.02 3.24,16.62C3.24,17.12 4.02,18.46 5.22,17.26C5.72,16.54 5.26,15.72 4.82,15.12C4.14,14.28 3.26,13.64 2.54,12.84C2.12,12.38 1.7,11.86 1.44,11.28C1.3,10.96 1.18,10.64 1.1,10.28C0.8,8.62 1.32,5.66 4.94,6C6.76,6.18 7.56,7.74 7.56,8.8C7.56,9.4 5.28,9.4 5.28,8.8C5.28,8 3.02,7.9 3.3,9.66C3.34,9.84 3.38,10.02 3.46,10.2C3.58,10.46 3.72,10.68 3.88,10.9C4.08,11.16 4.28,11.38 4.52,11.6C5.4,12.46 6.4,13.24 7.04,14.34C7.42,14.98 7.64,15.68 7.7,16.42ZM15.72,6.42C17.08,7.28 17.5,8.8 17.48,10.34C17.46,11.62 17.28,12.9 16.02,13.84C14.96,14.66 13.64,14.48 12.38,14.48L12.38,19.56C12.38,20.16 10.1,20.16 10.1,19.56L10.1,7.26C10.1,6.32 10.12,6.02 11.52,6L13.58,6C14.3,6 15.1,6.02 15.72,6.42ZM15.2,10.76C15.22,10.54 15.22,9.74 15.18,9.36C15.1,8.62 14.82,8.24 13.9,8.24L12.38,8.24L12.38,12.2L14.1,12.2C15.02,12.2 15.16,11.08 15.2,10.76Z" style="fill:rgb(31,31,31);fill-rule:nonzero;"/>
    </g>
    <g id="SvgjsG1639" transform="matrix(1.04771,0,0,1.04771,108.946,-13.6201)">
        <path d="M91.267,68.739C91.272,68.712 91.284,68.684 91.288,68.654C92.434,57.78 92.584,46.201 90.336,35.475C89.631,32.112 88.509,28.943 86.811,25.953C84.763,22.345 81.279,20.202 77.728,18.266C72.254,15.281 66.319,13.016 60.013,13C56.119,12.99 52.648,14.481 49.409,16.527C44.641,19.537 41.651,25.259 39.026,30.068C37.072,33.647 35.271,37.333 33.671,41.085C33.135,42.342 34.715,43.779 36.903,44.828C36.669,45.704 36.373,46.857 36.062,48.173L35.883,48.159L34.75,53.33L34.992,53.33C34.695,55.017 34.458,56.729 34.343,58.309C30.914,60.634 27.256,64.152 26.888,68.737C26.18,77.555 26.888,83.079 26.888,83.079C26.888,83.079 29.013,89.328 32.624,91.728C36.237,94.128 41.478,94.695 43.391,94.412C44.362,94.268 46.611,93.43 48.78,92.233C46.876,100.773 49.384,109.938 58.936,112.21C64.862,113.619 69.871,113.096 74.097,111.06C74.48,111.205 74.91,111.288 75.393,111.288C77.844,111.288 80.553,109.304 81.445,106.852C81.699,106.152 81.771,105.492 81.696,104.904C83.544,102.656 85.162,100.002 86.574,97.015C88.501,92.943 90.445,89.598 89.368,85.094C89.182,84.319 88.974,83.495 88.735,82.649C90.13,83.086 91.227,83.442 91.524,83.574C91.997,83.784 93.082,84.113 94.305,84.113C95.112,84.113 95.981,83.97 96.772,83.557C98.112,82.857 98.975,81.544 99.339,79.654C100.291,74.69 93.443,70.069 91.267,68.739ZM42.825,46.307C43.068,47.083 43.706,48.516 45.325,49.769C46.32,50.54 47.556,51.25 48.55,51.822C48.827,51.981 49.119,52.15 49.37,52.3C47.456,52.692 43.25,54.071 42.806,54.515C42.709,54.611 42.527,54.799 42.313,55.02C41.097,54.895 40.485,55.028 40.485,55.028C40.485,55.028 40.319,55.091 40.038,55.21C40.134,54.638 40.247,54.001 40.37,53.329L40.485,53.329L40.909,50.491C41.202,48.982 41.504,47.483 41.756,46.248C42.125,46.288 42.483,46.308 42.825,46.307ZM37.688,45.176C38.722,45.601 39.84,45.937 40.915,46.128C40.775,46.807 40.609,47.629 40.43,48.521L36.919,48.24C37.199,47.051 37.469,45.999 37.688,45.176ZM35.853,53.329L39.505,53.329C39.353,54.161 39.216,54.944 39.109,55.622C38.136,56.071 36.746,56.773 35.242,57.718C35.373,56.304 35.591,54.807 35.853,53.329ZM51.425,81.56C49.521,85.374 45.628,88.069 41.69,88.177C43.439,87.343 44.908,86.166 46.091,84.838C47.271,83.503 48.128,81.984 48.662,80.37C49.199,78.746 49.436,77.068 49.466,75.296C49.487,74.381 49.504,73.476 49.46,72.588C49.433,71.702 49.363,70.833 49.227,70.007C49.104,69.18 48.904,68.4 48.621,67.713C48.347,67.02 47.97,66.445 47.497,65.95C47.021,65.456 46.409,65.055 45.689,64.709C44.961,64.374 44.15,64.103 43.271,63.871C42.612,63.679 41.966,63.657 41.299,63.873C40.632,64.086 39.953,64.548 39.344,65.152C38.113,66.374 37.125,68.026 36.27,69.761C36.291,68.784 36.438,67.805 36.693,66.842C36.948,65.876 37.315,64.923 37.86,64.011C38.41,63.111 39.156,62.227 40.217,61.615C41.267,60.986 42.611,60.761 43.823,60.926C44.818,61.038 45.869,61.22 46.918,61.581C47.969,61.929 49.039,62.494 49.961,63.302C50.887,64.106 51.592,65.149 52.075,66.204C52.553,67.268 52.823,68.351 53.002,69.404C53.322,71.519 53.272,73.549 53.085,75.526C52.904,77.554 52.401,79.678 51.425,81.56ZM65.681,84.094C62.352,86.115 59.568,88.972 57.765,92.395C56.833,94.121 55.996,95.901 55.338,97.734C54.67,99.557 54.194,101.46 54.126,103.366C54.065,105.259 54.537,107.201 55.834,108.611C57.108,110.047 59.013,110.839 60.939,111.286C59.946,111.195 58.954,110.999 58.001,110.644C57.052,110.29 56.147,109.762 55.386,109.049C54.63,108.329 54.042,107.422 53.677,106.436C53.303,105.45 53.158,104.4 53.13,103.363C53.083,101.282 53.571,99.261 54.198,97.337C54.851,95.411 55.703,93.575 56.641,91.792C57.619,89.994 58.843,88.322 60.291,86.877C61.747,85.439 63.396,84.201 65.186,83.236C66.968,82.257 68.873,81.533 70.819,81.026C72.771,80.541 74.769,80.229 76.768,80.262C74.79,80.508 72.859,80.983 70.998,81.622C69.134,82.256 67.347,83.084 65.681,84.094ZM79.472,103.211C77.023,103.211 74.313,105.196 73.422,107.648C72.966,108.899 73.075,110.027 73.615,110.834C72.402,110.114 71.933,108.604 72.571,106.851C73.463,104.401 76.172,102.415 78.621,102.415C79.819,102.415 80.731,102.891 81.248,103.663C80.766,103.376 80.168,103.211 79.472,103.211ZM81.267,71.546C73.547,68.196 62.858,73.08 56.31,79.15C57.015,75.744 57.468,71.978 57.202,68.735C56.636,61.828 53.377,59.421 52.102,58.215C51.018,57.192 45.678,55.705 43.325,55.197C43.349,55.173 43.37,55.15 43.388,55.133C43.867,54.782 49.055,53.044 50.119,53.044C50.573,53.044 50.724,52.834 50.772,52.659C50.897,52.189 50.49,51.955 48.977,51.085C48.005,50.525 46.796,49.83 45.847,49.096C44.541,48.085 43.958,46.938 43.706,46.246C44.72,46.105 45.497,45.706 45.815,44.96C48.132,39.527 50.82,34.192 53.94,29.175C55.755,26.253 57.783,23.456 60.705,21.567C62.103,20.663 63.154,20.092 64.69,19.582C64.981,19.486 65.278,19.411 65.576,19.34C65.201,19.437 66.169,19.252 66.271,19.242C66.365,19.232 66.64,19.233 66.848,19.234C66.92,19.239 66.993,19.246 67.065,19.253C67.121,19.263 67.181,19.274 67.254,19.287C67.277,19.291 67.296,19.294 67.317,19.299C67.382,19.32 67.457,19.343 67.547,19.371C67.696,19.416 67.808,19.449 67.892,19.473C67.946,19.495 68.004,19.519 68.072,19.546C69.194,20 70.135,20.476 70.889,20.888C71.571,21.26 72.239,21.659 72.907,22.055C72.968,22.091 73.348,22.355 73.614,22.534C73.737,22.663 74.117,23.033 74.218,23.154C75.995,25.28 76.913,27.97 77.725,31.002C79.568,37.882 79.863,45.217 79.792,52.305C79.75,56.46 79.578,60.641 79.142,64.777C79.008,66.052 80.127,67.216 81.736,68.115C81.606,69.185 81.43,70.439 81.267,71.546ZM86.499,76.832C85.409,74.788 83.979,73.01 82.068,71.937C82.228,70.869 82.404,69.626 82.542,68.522C83.914,69.161 85.511,69.617 86.964,69.824C86.852,71.824 86.689,74.474 86.499,76.832ZM98.503,79.491C98.19,81.113 97.475,82.227 96.378,82.8C94.689,83.683 92.502,83.077 91.867,82.795C91.495,82.63 90.074,82.173 88.444,81.667C88.101,80.553 87.702,79.422 87.223,78.329C87.465,75.68 87.674,72.334 87.809,69.918C89.096,70.014 90.186,69.875 90.788,69.448C92.796,70.683 99.35,75.089 98.503,79.491Z" style="fill:url(#_Linear1);fill-rule:nonzero;"/>
    </g>
    <g id="SvgjsG1640" transform="matrix(7.47428,0,0,7.47428,222.598,-44.7874)">
        <path d="M1.04,6L9,6C9.6,6 9.6,8.24 9,8.24L6.16,8.28L6.16,19.56C6.16,20.16 3.88,20.16 3.88,19.56L3.88,8.28L1.04,8.24C0.44,8.24 0.44,6 1.04,6ZM18.96,18.86C19.38,19.86 17.14,20.34 16.88,19.74L16.76,19.46C16.1,17.88 15.38,16.08 14.72,14.48L13.74,14.48L13.74,19.56C13.74,20.16 11.46,20.16 11.46,19.56L11.46,7.26C11.46,6.32 11.48,6.02 12.88,6L14.94,6C15.66,6 16.46,6.02 17.08,6.42C18.44,7.28 18.86,8.8 18.84,10.34C18.82,11.62 18.64,12.9 17.38,13.84C17.24,13.92 17.12,14 17,14.08C17.64,15.6 18.34,17.34 18.96,18.86ZM16.56,10.76C16.58,10.54 16.58,9.74 16.54,9.36C16.46,8.62 16.18,8.24 15.26,8.24L13.74,8.24L13.74,12.2L15.46,12.2C16.38,12.2 16.52,11.08 16.56,10.76ZM26.92,6.42L29,19.12C29.16,20.12 26.9,20.22 26.78,19.5L26.38,17.1L24.04,17.1L23.64,19.5C23.54,20.1 21.26,20.12 21.42,19.12L23.52,6.42C23.62,5.82 26.84,5.88 26.92,6.42ZM26,14.84L25.22,10.06L24.42,14.84L26,14.84ZM36.26,16.2C36.26,15.6 38.48,15.6 38.48,16.2C38.48,18.44 37.32,20 35.2,20C32.98,20 31.46,18.62 31.4,16.5L31.4,9.52C31.46,7.38 33.06,5.96 35.2,6C37.44,6.04 38.48,7.6 38.48,9.82C38.48,10.42 36.26,10.42 36.26,9.82C36.26,9.6 36.26,9.42 36.22,9.22C36.1,8.04 34.68,8.26 34.38,8.42C33.8,8.7 33.68,9.4 33.68,9.88L33.68,16.14C33.7,16.62 33.8,17.32 34.38,17.6C34.68,17.76 36.1,17.98 36.22,16.82C36.26,16.62 36.26,16.42 36.26,16.2ZM44.62,13.02L47.76,18.8C48.2,19.6 45.98,20.34 45.72,19.84L43.16,15.18L43.16,19.56C43.16,20.16 40.88,20.16 40.88,19.56L40.88,6.46C40.88,5.86 43.16,5.86 43.16,6.46L43.16,10.84L45.72,6.16C45.98,5.7 48.2,6.38 47.76,7.2L44.62,13.02Z" style="fill:rgb(31,31,31);fill-rule:nonzero;"/>
    </g>
    <defs>
        <linearGradient id="_Linear1" x1="0" y1="0" x2="1" y2="0" gradientUnits="userSpaceOnUse" gradientTransform="matrix(30.5563,50.0012,-68.6319,41.9417,40.4625,60.2233)"><stop offset="0" style="stop-color:rgb(36,147,97);stop-opacity:1"/><stop offset="1" style="stop-color:rgb(62,207,142);stop-opacity:1"/></linearGradient>
    </defs>
</svg>
